<svg id="Layer_1" data-name="Layer 1" xmlns="http://www.w3.org/2000/svg" viewBox="0 0 768 250"><title>Artboard 1</title><path d="M0,219.15V30.75H25.1V199H69v20.19Z"/><path d="M156.39,131.68H125V199h43.93v20.19h-69V30.75h69V50.93H125v60.56h31.38Z"/><path d="M297.09,158.59a113.64,113.64,0,0,1-2.45,24,56,56,0,0,1-8.24,19.87A41.6,41.6,0,0,1,271,216q-9.66,5-24.08,5a59.36,59.36,0,0,1-17.35-2.31,42.85,42.85,0,0,1-13.09-6.41,38.85,38.85,0,0,1-9.37-9.89,53.46,53.46,0,0,1-6.13-12.72,77.31,77.31,0,0,1-3.28-14.82,132.79,132.79,0,0,1-1-16.3V91.3a132.63,132.63,0,0,1,1-16.29,77.41,77.41,0,0,1,3.28-14.83,53.83,53.83,0,0,1,6.13-12.72,38.8,38.8,0,0,1,9.37-9.88,42.85,42.85,0,0,1,13.09-6.41,59.35,59.35,0,0,1,17.35-2.32q14.42,0,24.08,5A41.49,41.49,0,0,1,286.4,47.46a56.06,56.06,0,0,1,8.24,19.87,113.64,113.64,0,0,1,2.45,24Zm-75.31,6.73a68.47,68.47,0,0,0,1.28,13.77,29.73,29.73,0,0,0,4.21,10.62,20,20,0,0,0,7.75,6.84,30.41,30.41,0,0,0,23.73,0,20.09,20.09,0,0,0,7.75-6.84,29.73,29.73,0,0,0,4.21-10.62A68.47,68.47,0,0,0,272,165.32V84.58a68.65,68.65,0,0,0-1.28-13.78,29.88,29.88,0,0,0-4.21-10.62,20,20,0,0,0-7.75-6.83,30.3,30.3,0,0,0-23.73,0,19.91,19.91,0,0,0-7.75,6.83,29.88,29.88,0,0,0-4.21,10.62,68.65,68.65,0,0,0-1.28,13.78Z"/><path d="M401.12,219.15,356.21,93.83V219.15H331.1V30.75h18.83l43.93,116.49V30.75H419v188.4Z"/><path d="M502.48,219.15V30.75h25.11V199h43.93v20.19Z"/><path d="M603.57,30.75h25.1v188.4h-25.1Z"/><path d="M717.79,221.15a57.69,57.69,0,0,1-19-2.79,40.75,40.75,0,0,1-13.58-7.67,38.77,38.77,0,0,1-9-11.57,66.44,66.44,0,0,1-5.35-14.35,99.9,99.9,0,0,1-2.59-16.09q-.69-8.4-.69-16.82V30.75h25.1V151.86c0,3.37,0,6.87.1,10.52a86.48,86.48,0,0,0,.83,10.67,63.06,63.06,0,0,0,2.21,9.93,25,25,0,0,0,4.27,8.26,20.18,20.18,0,0,0,7.1,5.62,27.75,27.75,0,0,0,21.18,0,20.12,20.12,0,0,0,7.11-5.62,25,25,0,0,0,4.27-8.26,63.06,63.06,0,0,0,2.21-9.93,88.47,88.47,0,0,0,.83-10.67c.06-3.65.1-7.15.1-10.52V30.75H768V151.86q0,8.41-.69,16.82a99.9,99.9,0,0,1-2.59,16.09,66.44,66.44,0,0,1-5.35,14.35,38.77,38.77,0,0,1-9,11.57,40.75,40.75,0,0,1-13.58,7.67A57.71,57.71,0,0,1,717.79,221.15Z"/></svg>